<?xml version="1.0" standalone="no"?>
<!DOCTYPE svg PUBLIC "-//W3C//DTD SVG 1.1//EN" "http://www.w3.org/Graphics/SVG/1.1/DTD/svg11.dtd">
<svg t="1586573864589" class="icon" viewBox="0 0 1025 1024" version="1.1" xmlns="http://www.w3.org/2000/svg" p-id="1489" xmlns:xlink="http://www.w3.org/1999/xlink">
<defs>
<style type="text/css">
</style>
</defs>
<path d="M844.288 173.056h-187.904l59.392-104.96a25.6 25.6 0 1 0-44.544-25.088l-73.728 130.048H412.672L338.944 43.008a25.6 25.6 0 0 0-44.544 25.088l59.392 104.96H180.736A170.752 170.752 0 0 0 10.24 343.552v480.256a170.752 170.752 0 0 0 170.496 170.496h663.552a170.752 170.752 0 0 0 170.496-170.496V343.552a170.4448 170.4448 0 0 0-170.496-170.496z" fill="#222222" p-id="1490">
</path>
<path d="M687.104 606.208l-243.2 141.824a26.5216 26.5216 0 0 1-26.624 0 26.2656 26.2656 0 0 1-13.312-23.04V441.856a26.88 26.88 0 0 1 13.312-23.04 27.3408 27.3408 0 0 1 26.624 0l243.2 141.824a29.184 29.184 0 0 1 13.312 22.528 26.88 26.88 0 0 1-13.312 23.04z" fill="#00B65F" p-id="1491">
</path>
</svg>