<?xml version="1.0" standalone="no"?><!DOCTYPE svg PUBLIC "-//W3C//DTD SVG 1.1//EN" "http://www.w3.org/Graphics/SVG/1.1/DTD/svg11.dtd"><svg t="1586584680568" class="icon" viewBox="0 0 1024 1024" version="1.1" xmlns="http://www.w3.org/2000/svg" p-id="5860" xmlns:xlink="http://www.w3.org/1999/xlink" width="1000" height="1000"><defs><style type="text/css"></style></defs><path d="M0 0h1024v1024H0z" fill="#F55F5F" p-id="5861"></path><path d="M768 540.416a165.3248 165.3248 0 0 0-48-7.0912c-34.048 0-65.7152 10.3168-92.032 27.9808V522.24h89.1648v-21.8112H627.968V451.584h94.7968v-21.8368h-120.3712v152.704a164.8128 164.8128 0 0 0-47.7184 116.1984c0 17.8432 2.816 35.0208 8.0384 51.1232H263.9872c-39.7312 0-71.9872-32.8448-71.9872-73.344V353.792c0-40.4736 32.256-73.3184 72.0128-73.3184h98.5856l-70.656-86.2464c-5.0176-7.0144-3.5328-16.4864 3.456-21.0688a16.2048 16.2048 0 0 1 21.8112 4.3264l84.3776 102.9888h178.176l84.352-102.9888a16.2048 16.2048 0 0 1 21.8112-4.3264c6.9888 4.5824 8.448 14.0544 3.456 21.0688l-70.656 86.2464h77.2608c39.7568 0 72.0128 32.8448 72.0128 73.3184v186.624zM251.0848 429.7728v167.552h117.5808v-21.8112h-92.2368v-145.7408h-25.344z m139.1616 0v167.552h25.344v-167.552h-25.344z m43.4176 0l60.0832 167.552h30.976l60.0576-167.552h-27.6736l-47.4112 138.9312h-0.6912l-47.6416-138.9312H433.664z m286.336 412.9024a144 144 0 1 1 0-288 144 144 0 0 1 0 288z m-49.024-110.6176l24.2688-77.9776 16.0256 126.0544c1.408 11.1616 15.6416 12.5952 18.944 1.92l22.2208-72.1664 10.8288 23.5008a9.728 9.728 0 0 0 8.7296 5.888H832v-21.3248h-53.9648l-18.6368-40.5248c-3.8912-8.4736-15.232-7.6032-18.0224 1.3824l-16.4608 53.4528-15.9488-125.7216c-1.4336-11.136-15.616-12.6208-18.944-1.9712l-35.328 113.3824h-57.344v21.3248h64.3584a9.8816 9.8816 0 0 0 9.2672-7.2192z" fill="#FFFFFF" p-id="5862"></path></svg>