<?xml version="1.0" standalone="no"?><!DOCTYPE svg PUBLIC "-//W3C//DTD SVG 1.1//EN" "http://www.w3.org/Graphics/SVG/1.1/DTD/svg11.dtd"><svg t="1585316777362" class="icon" viewBox="0 0 1024 1024" version="1.1" xmlns="http://www.w3.org/2000/svg" p-id="2839" xmlns:xlink="http://www.w3.org/1999/xlink" width="200" height="200"><defs><style type="text/css"></style></defs><path d="M812.2 370.3l-124.5-0.6c5.6-18.1 13.2-45.7 17.2-73.7 4.6-32.1 5.7-58.9 3-77.6-4.4-31-17.5-57.9-37.8-78-22.1-21.9-50.7-33.4-82.6-33.4h-1.6c-2 0.1-19.7 1.2-39 8.4-30.2 11.3-49.6 32.4-54.7 59.3l-0.6 3.1 0.1 3.2c0.9 34.2-8.9 95.1-15.7 117.9-1.6 5.5-13.6 24.1-33.9 42.4-20 18-40.5 28.8-55 28.8h-15.8c-6.4-14.2-20.8-24.2-37.4-24.2H147.4c-22.6 0-41 18.4-41 41v478.2c0 22.6 18.4 41 41 41H334c13.8 0 26-6.8 33.4-17.3h359.4c64.8 0 116-49.2 130.4-125.3 10.2-53.9 59.3-279.3 59.8-281.6l0.7-3.2v-3.2c-0.1-57.9-47.3-105.2-105.5-105.2z m-647.3 34.3h151.4c-0.5 2.5-0.7 5-0.7 7.6v435.5H164.9V404.6z m633.3 348c-7 37-29.5 76.5-71.5 76.5H375.6V430.2h11.5c38.1 0 72.8-24.1 95.2-44.3 25.3-22.8 45.4-50.2 51.2-69.7 7.9-26.4 18.5-89.8 18.2-132.3 4.7-11.8 29.2-16.2 36.8-16.9 38 0.5 55.9 31.2 60.1 59.8 0.9 6 2.3 24-3 60.5-5.9 40.6-21 82.3-21.1 82.7-4.9 13.5-3 28.5 5.1 40.3 8.1 11.8 21.5 19 35.9 19.1l146.6 0.7h0.2c24.1 0 44 18.9 45.4 42.6C851 503 808 700.9 798.2 752.6z" fill="#B3B3B3" p-id="2840"></path></svg>