<?xml version="1.0" standalone="no"?><!DOCTYPE svg PUBLIC "-//W3C//DTD SVG 1.1//EN" "http://www.w3.org/Graphics/SVG/1.1/DTD/svg11.dtd"><svg t="1587665034433" class="icon" viewBox="0 0 1024 1024" version="1.1" xmlns="http://www.w3.org/2000/svg" p-id="1467" xmlns:xlink="http://www.w3.org/1999/xlink" width="200" height="200"><defs><style type="text/css"></style></defs><path d="M462.272 312.896l0 298.624 248.896 0L711.168 528.576 541.952 528.576l0-215.68L462.272 312.896zM512 64C403.776 64 304.448 102.4 227.008 166.336l21.376-82.048L175.168 64l-40.96 157.056L113.856 299.52l73.28 20.224 155.712 42.88 20.416-78.528-90.56-24.96C335.168 200.064 419.264 163.52 512 163.52c192.448 0 348.48 156.032 348.48 348.48S704.448 860.416 512 860.416 163.648 704.448 163.648 512c0-9.856 2.048-19.136 2.88-28.8L65.92 474.816C64.96 487.104 64 499.456 64 512c0 247.424 200.576 448 448 448s448-200.576 448-448S759.424 64 512 64z" p-id="1468"></path></svg>