<?xml version="1.0" standalone="no"?><!DOCTYPE svg PUBLIC "-//W3C//DTD SVG 1.1//EN" "http://www.w3.org/Graphics/SVG/1.1/DTD/svg11.dtd"><svg t="1587319469021" class="icon" viewBox="0 0 1024 1024" version="1.1" xmlns="http://www.w3.org/2000/svg" p-id="10303" xmlns:xlink="http://www.w3.org/1999/xlink" width="200" height="200"><defs><style type="text/css"></style></defs><path d="M355.84 11.776c-10.24-3.584-21.504-0.512-28.16 7.68l-216.576 254.976c-9.216 10.752-7.68 27.136 3.072 35.84 10.752 9.216 27.136 7.68 35.84-3.072l171.008-201.728 0 882.688c0 14.336 11.264 25.6 25.6 25.6s25.6-11.264 25.6-25.6l0-952.32C372.736 25.088 366.08 15.36 355.84 11.776z" p-id="10304"></path><path d="M909.824 713.728c-10.752-9.216-27.136-7.68-35.84 3.072l-171.008 201.728L702.976 35.84c0-14.336-11.264-25.6-25.6-25.6s-25.6 11.264-25.6 25.6l0 952.32c0 10.752 6.656 20.48 16.896 24.064 3.072 1.024 5.632 1.536 8.704 1.536 7.168 0 14.336-3.072 19.456-9.216l216.576-254.976C921.6 739.328 920.576 722.944 909.824 713.728z" p-id="10305"></path></svg>