<?xml version="1.0" standalone="no"?><!DOCTYPE svg PUBLIC "-//W3C//DTD SVG 1.1//EN" "http://www.w3.org/Graphics/SVG/1.1/DTD/svg11.dtd"><svg t="1585316646832" class="icon" viewBox="0 0 1024 1024" version="1.1" xmlns="http://www.w3.org/2000/svg" p-id="2038" xmlns:xlink="http://www.w3.org/1999/xlink" width="200" height="200"><defs><style type="text/css"></style></defs><path d="M1003.2 400.32a49.408 49.408 0 0 0-17.472-13.824 42.88 42.88 0 0 0-17.6-7.04l-298.496-42.304L550.4 64.256a44.928 44.928 0 0 0-43.776-25.92 44.992 44.992 0 0 0-43.84 25.92l-119.04 272.512-294.336 41.728a44.928 44.928 0 0 0-36.736 35.2 44.992 44.992 0 0 0 13.312 49.152l225.856 183.936-85.952 277.76a44.864 44.864 0 0 0 16.128 48.128 44.8 44.8 0 0 0 50.24 8.96l281.024-134.656 272.576 130.624a44.8 44.8 0 0 0 50.24-8.896 44.8 44.8 0 0 0 16.128-48.192l-85.504-276.416 230.336-178.304c19.584-15.232 22.272-44.544 6.144-65.472z" p-id="2039"></path></svg>