<?xml version="1.0" standalone="no"?><!DOCTYPE svg PUBLIC "-//W3C//DTD SVG 1.1//EN" "http://www.w3.org/Graphics/SVG/1.1/DTD/svg11.dtd"><svg t="1587551888524" class="icon" viewBox="0 0 1024 1024" version="1.1" xmlns="http://www.w3.org/2000/svg" p-id="2071" xmlns:xlink="http://www.w3.org/1999/xlink" width="200" height="200"><defs><style type="text/css"></style></defs><path d="M779.1 142H443.9c-5.4 0-10.2 2.3-13.6 6-0.2 0.1-0.3 0.3-0.5 0.4L189.6 388.6c-0.2 0.1-0.3 0.3-0.4 0.5-3.7 3.4-6 8.2-6 13.6v465.5c0 20.6 16.7 37.2 37.2 37.2h401.3c10.3 0 18.6-8.3 18.6-18.6s-8.3-18.6-18.6-18.6h-364c-20.6 0-37.2-16.7-37.2-37.2V421.3H444c10.3 0 18.6-8.3 18.6-18.6V179.2h279.3c20.6 0 37.2 16.7 37.2 37.2V620c0 10.3 8.3 18.6 18.6 18.6s18.6-8.3 18.6-18.6V179.2c0-20.5-16.7-37.2-37.2-37.2zM425.3 384.1H246.8l178.5-178.5v178.5z" p-id="2072"></path><path d="M905.1 874.8L824 793.7l81.1-81.1c6.9-6.9 6.9-18.1 0-25-6.9-6.9-18.1-6.9-25 0L799 768.7l-81-81c-6.9-6.9-18.1-6.9-25 0-6.9 6.9-6.9 18.1 0 25l81.1 81.1-81.1 81c-6.9 6.9-6.9 18.1 0 25 6.9 6.9 18.1 6.9 25 0l81.1-81.1 81.1 81.1c6.9 6.9 18.1 6.9 25 0 6.9-6.9 6.9-18.1-0.1-25z" p-id="2073"></path></svg>