<?xml version="1.0" standalone="no"?><!DOCTYPE svg PUBLIC "-//W3C//DTD SVG 1.1//EN" "http://www.w3.org/Graphics/SVG/1.1/DTD/svg11.dtd"><svg t="1585300863983" class="icon" viewBox="0 0 1024 1024" version="1.1" xmlns="http://www.w3.org/2000/svg" p-id="1213" xmlns:xlink="http://www.w3.org/1999/xlink" width="200" height="200"><defs><style type="text/css"></style></defs><path d="M947.12054 530.066471c-3.90596-22.37152-12.855796-42.996257-26.593681-61.297065-13.734816-18.295692-31.052227-32.633235-51.470255-42.612517-19.47147-9.517771-41.24231-14.548344-62.954821-14.548344l-142.413524 0c22.272259-75.258031 32.695656-141.019781 30.992875-195.60805-1.452071-46.5195-11.658528-85.210707-30.333866-114.994034-31.380708-50.04479-75.368548-57.292867-77.226872-57.577347l-0.679475-0.104377-0.685615 0c-28.402887 0-48.13223 8.021697-58.640562 23.840988-8.872065 13.356193-9.041934 29.039383-9.155521 39.417755-0.031722 2.921539-0.062422 5.682419-0.293689 7.320733l-0.091074 0.63138 0 0.638543c0 138.51268-144.032394 253.351172-206.193129 296.434409L117.315404 411.608545c-23.462365 0-42.548048 19.086707-42.548048 42.548048l0 483.96755c0 23.462365 19.085684 42.549072 42.548048 42.549072L747.566622 980.673216c16.597003 0 32.408107-5.27412 45.731554-15.257495 13.204743-9.923 22.62223-23.51967 27.254737-39.336914l122.82028-330.84001 0.207731-0.63138C949.626617 573.748343 950.849468 551.425941 947.12054 530.066471zM111.606379 938.125167 111.606379 454.157617c0-3.094478 2.614547-5.709025 5.709025-5.709025l157.475568 0 0 495.386624L117.315404 943.835216C114.219903 943.835216 111.606379 941.218622 111.606379 938.125167zM908.460032 583.437006 786.018376 913.258827c-0.301875 0.813528-0.576121 1.638313-0.819668 2.469238-2.413979 8.246825-7.133468 15.052834-14.023388 20.23281-6.989181 5.222955-14.932084 7.873318-23.607674 7.873318L311.628972 943.834192 311.628972 448.439382c7.41283-0.050142 14.642488-2.325975 20.738323-6.55223 66.527183-46.110177 220.948181-169.863712 222.040049-325.059354 0.317225-3.238764 0.352017-6.460132 0.388856-9.845229 0.069585-6.396687 0.165776-15.158235 3.00545-19.430538 2.826372-4.253884 12.350283-7.002484 25.175379-7.348362 6.822382 1.786693 31.144324 10.045797 50.161447 40.374546 15.158235 24.175609 23.475667 56.667627 24.722054 96.571453 1.578961 50.626028-8.345062 112.535029-29.496801 184.005804-3.297093 11.142781-1.144056 23.189142 5.810333 32.499182 6.955412 9.31004 17.893532 14.793938 29.516244 14.793938l142.413524 0c16.138562 0 32.314986 3.736091 46.77942 10.807137 15.134699 7.397481 27.983331 18.039865 38.184671 31.630395 10.216689 13.612019 16.867156 28.92682 19.764136 45.51666C913.545864 551.95806 912.725172 568.198953 908.460032 583.437006z" p-id="1214"></path></svg>